# xmcd
#
# Track frame offsets:
#	150
#	14005
#	31159
#	45794
#	62299
#	79924
#
# Disc length: 1251 seconds
# Revision: 0
# Processed by: cddbd v1.5.2PL0 Copyright (c) Steve Scherf et al.
# Submitted via: dBpowerAMP V12.0
#
DISCID=3904e106
DTITLE=JoAnn Lewis - Doin it Right
DYEAR=1900
DGENRE=Country
TTITLE0=I Got The Steak (He Got The Bone)
TTITLE1=I'm Just a Shadow
TTITLE2=Ridin The Fence
TTITLE3=She's in Love with His Memory 
TTITLE4=Bar in My Car
TTITLE5=Internet Babe
EXTD=
EXTT0=
EXTT1=
EXTT2=
EXTT3=
EXTT4=
EXTT5=
PLAYORDER=
